<svg width="25" height="25" viewBox="0 0 25 25" fill="none" xmlns="http://www.w3.org/2000/svg">
<path d="M9.27915 11.8755L4.84363 17.3987C4.53705 17.7805 4.04132 17.7805 3.73801 17.3987L3.00093 16.4809C2.69435 16.0991 2.69435 15.4818 3.00093 15.1041L6.14493 11.1891L3.00093 7.27409C2.69435 6.89234 2.69435 6.27503 3.00093 5.89734L3.73474 4.97138C4.04132 4.58962 4.53705 4.58962 4.84036 4.97138L9.27589 10.4946C9.58572 10.8764 9.58572 11.4937 9.27915 11.8755ZM15.5411 10.4946L11.1055 4.97138C10.799 4.58962 10.3032 4.58962 9.99992 4.97138L9.26284 5.88921C8.95627 6.27097 8.95627 6.88828 9.26284 7.26597L12.4068 11.181L9.26284 15.096C8.95627 15.4778 8.95627 16.0951 9.26284 16.4728L9.99992 17.3906C10.3065 17.7724 10.8022 17.7724 11.1055 17.3906L15.5411 11.8673C15.8476 11.4937 15.8476 10.8764 15.5411 10.4946Z" fill="#121212"/>
</svg>
