<svg width="26" height="26" viewBox="0 0 26 26" fill="none" xmlns="http://www.w3.org/2000/svg">
<g clip-path="url(#clip0_11_22)">
<path d="M14.1837 6.82393C13.5988 3.2224 12.2193 0.693665 10.6138 0.693665C9.00832 0.693665 7.62874 3.2224 7.04384 6.82393H14.1837ZM6.7413 10.6957C6.7413 11.591 6.7897 12.4501 6.87441 13.2768H14.3491C14.4338 12.4501 14.4822 11.591 14.4822 10.6957C14.4822 9.80034 14.4338 8.9413 14.3491 8.11452H6.87441C6.7897 8.9413 6.7413 9.80034 6.7413 10.6957ZM19.8392 6.82393C18.6855 4.08548 16.3499 1.96812 13.4657 1.1131C14.45 2.47628 15.1276 4.52912 15.4826 6.82393H19.8392ZM7.75782 1.1131C4.87766 1.96812 2.53804 4.08548 1.38839 6.82393H5.74494C6.09588 4.52912 6.77357 2.47628 7.75782 1.1131ZM20.2708 8.11452H15.644C15.7287 8.96146 15.7771 9.82857 15.7771 10.6957C15.7771 11.5628 15.7287 12.4299 15.644 13.2768H20.2668C20.4886 12.4501 20.6137 11.591 20.6137 10.6957C20.6137 9.80034 20.4886 8.9413 20.2708 8.11452ZM5.45047 10.6957C5.45047 9.82857 5.49888 8.96146 5.58359 8.11452H0.956773C0.738946 8.9413 0.609863 9.80034 0.609863 10.6957C0.609863 11.591 0.738946 12.4501 0.956773 13.2768H5.57955C5.49888 12.4299 5.45047 11.5628 5.45047 10.6957ZM7.04384 14.5674C7.62874 18.169 9.00832 20.6977 10.6138 20.6977C12.2193 20.6977 13.5988 18.169 14.1837 14.5674H7.04384ZM13.4697 20.2783C16.3499 19.4232 18.6895 17.3059 19.8432 14.5674H15.4867C15.1317 16.8622 14.454 18.9151 13.4697 20.2783ZM1.38839 14.5674C2.54207 17.3059 4.87766 19.4232 7.76186 20.2783C6.7776 18.9151 6.09992 16.8622 5.74494 14.5674H1.38839Z" fill="white"/>
</g>
<defs>
<clipPath id="clip0_11_22">
<rect width="25.0048" height="25" fill="white" transform="translate(0.219238 0.30304)"/>
</clipPath>
</defs>
</svg>
