<svg width="125" height="42" viewBox="0 0 125 42" fill="none" xmlns="http://www.w3.org/2000/svg">
<path d="M10.325 10.92C10.325 10.8033 10.36 10.71 10.43 10.64C10.5233 10.5467 10.6283 10.5 10.745 10.5H14.84C14.9567 10.5 15.05 10.5467 15.12 10.64C15.2133 10.71 15.26 10.8033 15.26 10.92V34.58C15.26 34.6967 15.2133 34.8017 15.12 34.895C15.05 34.965 14.9567 35 14.84 35H10.745C10.6283 35 10.5233 34.965 10.43 34.895C10.36 34.8017 10.325 34.6967 10.325 34.58V25.025C10.325 24.9083 10.2667 24.85 10.15 24.85H6.65C6.53333 24.85 6.475 24.9083 6.475 25.025V34.58C6.475 34.6967 6.42833 34.8017 6.335 34.895C6.265 34.965 6.17167 35 6.055 35H1.96C1.84333 35 1.73833 34.965 1.645 34.895C1.575 34.8017 1.54 34.6967 1.54 34.58V10.92C1.54 10.8033 1.575 10.71 1.645 10.64C1.73833 10.5467 1.84333 10.5 1.96 10.5H6.055C6.17167 10.5 6.265 10.5467 6.335 10.64C6.42833 10.71 6.475 10.8033 6.475 10.92V20.44C6.475 20.5567 6.53333 20.615 6.65 20.615H10.15C10.2667 20.615 10.325 20.5567 10.325 20.44V10.92ZM25.7064 16.73C27.6897 16.73 29.2997 17.2667 30.5364 18.34C31.7731 19.4133 32.3914 20.825 32.3914 22.575V34.58C32.3914 34.6967 32.3447 34.8017 32.2514 34.895C32.1814 34.965 32.0881 35 31.9714 35H27.8764C27.7597 35 27.6547 34.965 27.5614 34.895C27.4914 34.8017 27.4564 34.6967 27.4564 34.58V33.81C27.4564 33.74 27.4331 33.6933 27.3864 33.67C27.3397 33.6467 27.2931 33.67 27.2464 33.74C26.4764 34.72 25.2864 35.2333 23.6764 35.28C22.3231 35.28 21.1447 34.9067 20.1414 34.16C19.1614 33.4133 18.6714 31.99 18.6714 29.89C18.6714 27.72 19.2664 26.2267 20.4564 25.41C21.6697 24.5933 23.4081 24.185 25.6714 24.185H27.2814C27.3981 24.185 27.4564 24.1267 27.4564 24.01V23.135C27.4564 22.505 27.2814 21.9917 26.9314 21.595C26.6047 21.175 26.1847 20.965 25.6714 20.965C25.2747 20.965 24.9364 21.0933 24.6564 21.35C24.3997 21.5833 24.2364 21.9217 24.1664 22.365C24.1431 22.645 23.9914 22.785 23.7114 22.785L19.5114 22.75C19.2314 22.75 19.0914 22.61 19.0914 22.33C19.2081 20.6267 19.8731 19.2733 21.0864 18.27C22.2997 17.2433 23.8397 16.73 25.7064 16.73ZM25.3564 31.465C25.8931 31.465 26.3714 31.29 26.7914 30.94C27.2347 30.5667 27.4564 30.0767 27.4564 29.47V27.825C27.4564 27.7083 27.3981 27.65 27.2814 27.65H25.8464C25.2164 27.65 24.7031 27.8367 24.3064 28.21C23.9331 28.56 23.7464 29.05 23.7464 29.68C23.7464 30.2633 23.8864 30.7067 24.1664 31.01C24.4697 31.3133 24.8664 31.465 25.3564 31.465ZM44.2315 16.73C45.8182 16.73 47.0082 17.255 47.8015 18.305C48.5949 19.355 48.9915 20.825 48.9915 22.715V34.58C48.9915 34.6967 48.9449 34.8017 48.8515 34.895C48.7815 34.965 48.6882 35 48.5715 35H44.4765C44.3599 35 44.2549 34.965 44.1615 34.895C44.0915 34.8017 44.0565 34.6967 44.0565 34.58V23.1C44.0565 22.4233 43.9165 21.8983 43.6365 21.525C43.3799 21.1517 42.9949 20.965 42.4815 20.965C41.9449 20.965 41.5249 21.1633 41.2215 21.56C40.9415 21.9333 40.8015 22.47 40.8015 23.17V34.58C40.8015 34.6967 40.7549 34.8017 40.6615 34.895C40.5915 34.965 40.4982 35 40.3815 35H36.2865C36.1699 35 36.0649 34.965 35.9715 34.895C35.9015 34.8017 35.8665 34.6967 35.8665 34.58V17.43C35.8665 17.3133 35.9015 17.22 35.9715 17.15C36.0649 17.0567 36.1699 17.01 36.2865 17.01H40.3815C40.4982 17.01 40.5915 17.0567 40.6615 17.15C40.7549 17.22 40.8015 17.3133 40.8015 17.43V18.095C40.8015 18.165 40.8249 18.2 40.8715 18.2C40.9415 18.2 41.0232 18.1533 41.1165 18.06C41.8632 17.1733 42.9015 16.73 44.2315 16.73ZM58.9408 35.28C56.8875 35.28 55.2658 34.755 54.0758 33.705C52.9092 32.655 52.3258 31.22 52.3258 29.4V22.61C52.3258 20.8367 52.9092 19.4133 54.0758 18.34C55.2658 17.2667 56.8875 16.73 58.9408 16.73C60.9942 16.73 62.6042 17.255 63.7708 18.305C64.9608 19.355 65.5558 20.72 65.5558 22.4V23.03C65.5558 23.1467 65.5092 23.2517 65.4158 23.345C65.3458 23.415 65.2525 23.45 65.1358 23.45L61.0408 23.625C60.7608 23.625 60.6208 23.485 60.6208 23.205V22.785C60.6208 22.2717 60.4575 21.84 60.1308 21.49C59.8275 21.14 59.4308 20.965 58.9408 20.965C58.4275 20.965 58.0192 21.1517 57.7158 21.525C57.4125 21.8983 57.2608 22.3883 57.2608 22.995V29.015C57.2608 29.6217 57.4125 30.1117 57.7158 30.485C58.0192 30.8583 58.4275 31.045 58.9408 31.045C59.4308 31.045 59.8275 30.87 60.1308 30.52C60.4575 30.1467 60.6208 29.715 60.6208 29.225V28.77C60.6208 28.6533 60.6558 28.56 60.7258 28.49C60.8192 28.3967 60.9242 28.35 61.0408 28.35L65.1358 28.385C65.2525 28.385 65.3458 28.4317 65.4158 28.525C65.5092 28.595 65.5558 28.6883 65.5558 28.805V29.61C65.5558 31.3367 64.9608 32.7133 63.7708 33.74C62.6042 34.7667 60.9942 35.28 58.9408 35.28ZM75.2016 35.28C73.1249 35.28 71.4916 34.755 70.3016 33.705C69.1349 32.655 68.5516 31.22 68.5516 29.4V22.61C68.5516 20.8367 69.1466 19.4133 70.3366 18.34C71.5266 17.2667 73.1483 16.73 75.2016 16.73C77.2783 16.73 78.9116 17.2667 80.1016 18.34C81.2916 19.4133 81.8866 20.8367 81.8866 22.61V29.4C81.8866 31.22 81.2916 32.655 80.1016 33.705C78.9349 34.755 77.3016 35.28 75.2016 35.28ZM75.2016 31.01C75.7149 31.01 76.1349 30.8233 76.4616 30.45C76.7883 30.0767 76.9516 29.5983 76.9516 29.015V22.96C76.9516 22.3767 76.7883 21.8983 76.4616 21.525C76.1349 21.1517 75.7149 20.965 75.2016 20.965C74.6883 20.965 74.2683 21.1517 73.9416 21.525C73.6383 21.8983 73.4866 22.3767 73.4866 22.96V29.015C73.4866 29.5983 73.6383 30.0767 73.9416 30.45C74.2683 30.8233 74.6883 31.01 75.2016 31.01ZM85.75 35C85.6333 35 85.5283 34.965 85.435 34.895C85.365 34.8017 85.33 34.6967 85.33 34.58V10.92C85.33 10.8033 85.365 10.71 85.435 10.64C85.5283 10.5467 85.6333 10.5 85.75 10.5H89.845C89.9617 10.5 90.055 10.5467 90.125 10.64C90.2183 10.71 90.265 10.8033 90.265 10.92V22.505C90.265 22.5983 90.2883 22.6567 90.335 22.68C90.3817 22.68 90.4283 22.645 90.475 22.575L93.52 17.29C93.6133 17.1033 93.7883 17.01 94.045 17.01H98.245C98.4083 17.01 98.5133 17.0567 98.56 17.15C98.63 17.2433 98.6183 17.36 98.525 17.5L94.745 23.38C94.6983 23.4733 94.6867 23.555 94.71 23.625L98.98 34.51C99.0033 34.5567 99.015 34.615 99.015 34.685C99.015 34.895 98.8867 35 98.63 35H94.395C94.1617 35 94.01 34.8833 93.94 34.65L91.7 27.72C91.6767 27.65 91.6417 27.615 91.595 27.615C91.5483 27.5917 91.5133 27.615 91.49 27.685L90.335 29.505C90.2883 29.5983 90.265 29.6683 90.265 29.715V34.58C90.265 34.6967 90.2183 34.8017 90.125 34.895C90.055 34.965 89.9617 35 89.845 35H85.75Z" fill="white"/>
<ellipse cx="115.522" cy="30.5" rx="4.50086" ry="4.5" fill="#FF4655"/>
</svg>
