<svg width="25" height="26" viewBox="0 0 25 26" fill="none" xmlns="http://www.w3.org/2000/svg">
<g clip-path="url(#clip0_11_24)">
<path d="M21.5506 20.0237L17.2655 15.7394C17.0721 15.546 16.8099 15.4386 16.5349 15.4386H15.8343C17.0205 13.9216 17.7254 12.0137 17.7254 9.93815C17.7254 5.00068 13.724 1 8.78556 1C3.84715 1 -0.154297 5.00068 -0.154297 9.93815C-0.154297 14.8756 3.84715 18.8763 8.78556 18.8763C10.8615 18.8763 12.7698 18.1716 14.287 16.9855V17.686C14.287 17.961 14.3945 18.2231 14.5879 18.4165L18.873 22.7008C19.277 23.1047 19.9303 23.1047 20.33 22.7008L21.5463 21.4847C21.9504 21.0808 21.9504 20.4276 21.5506 20.0237ZM8.78556 15.4386C5.74687 15.4386 3.28411 12.9806 3.28411 9.93815C3.28411 6.90004 5.74257 4.43775 8.78556 4.43775C11.8242 4.43775 14.287 6.89574 14.287 9.93815C14.287 12.9763 11.8285 15.4386 8.78556 15.4386Z" fill="white"/>
</g>
<defs>
<clipPath id="clip0_11_24">
<rect width="25.0048" height="25" fill="white" transform="translate(-0.00476074 0.615723)"/>
</clipPath>
</defs>
</svg>
