<svg width="15" height="14" viewBox="0 0 15 14" fill="none" xmlns="http://www.w3.org/2000/svg">
<g clip-path="url(#clip0_9_8)">
<path d="M14.4201 7.46485L9.82544 12.0586C9.41521 12.4688 8.70413 12.1816 8.70413 11.5938V8.96875H4.98468C4.62094 8.96875 4.3283 8.67617 4.3283 8.3125V5.6875C4.3283 5.32383 4.62094 5.03125 4.98468 5.03125H8.70413V2.40625C8.70413 1.8211 9.41247 1.53125 9.82544 1.94141L14.4201 6.53516C14.6744 6.79219 14.6744 7.20781 14.4201 7.46485ZM6.07864 11.9219V10.8281C6.07864 10.6477 5.93095 10.5 5.75045 10.5H3.45314C2.96906 10.5 2.57797 10.109 2.57797 9.625V4.375C2.57797 3.89102 2.96906 3.5 3.45314 3.5H5.75045C5.93095 3.5 6.07864 3.35235 6.07864 3.17188V2.07813C6.07864 1.89766 5.93095 1.75 5.75045 1.75H3.45314C2.00364 1.75 0.827637 2.92578 0.827637 4.375V9.625C0.827637 11.0742 2.00364 12.25 3.45314 12.25H5.75045C5.93095 12.25 6.07864 12.1023 6.07864 11.9219Z" fill="white"/>
</g>
<defs>
<clipPath id="clip0_9_8">
<rect width="14.0027" height="14" fill="white" transform="translate(0.827637)"/>
</clipPath>
</defs>
</svg>
